<?xml version="1.0" encoding="utf-8"?>
<!-- Svg Vector Icons : http://www.onlinewebfonts.com/icon -->
<!DOCTYPE svg PUBLIC "-//W3C//DTD SVG 1.1//EN" "http://www.w3.org/Graphics/SVG/1.1/DTD/svg11.dtd">
<svg version="1.1" xmlns="http://www.w3.org/2000/svg" xmlns:xlink="http://www.w3.org/1999/xlink" x="0px" y="0px" viewBox="0 0 256 256" enable-background="new 0 0 256 256" xml:space="preserve">
<metadata> Svg Vector Icons : http://www.onlinewebfonts.com/icon </metadata>
<g><g><g><path fill="#000000" d="M150.5,158.6c0,0-11.2,14.3-25.6,0c-13.9-13.5-24,0-24,0l-33.5,66c-1,3.6,1.2,7.3,4.8,8.3h111.3c3.6-1,5.7-4.6,4.8-8.3L150.5,158.6z M201.8,221.2L148,130.7v-0.2l-0.1-53.1h3.7c5.6,0,10.1-4.5,10.1-10.1c0-5.6-4.5-10.1-10.1-10.1H97.7c-5.6,0-10.1,4.5-10.1,10.1c0,5.6,4.5,10.1,10.1,10.1h3.3l-0.1,53.1l-46.6,90.7c-2.9,10.8,3.5,21.9,14.3,24.8h119C198.3,243.1,204.7,232,201.8,221.2z M185.7,239.2l-115.4-0.1c-7.2-1.9-11.4-9.3-9.5-16.5l46.9-91.8l0.1-60.1H97.7c-1.9,0-3.4-1.5-3.4-3.4c0-1.9,1.5-3.4,3.4-3.4h53.9c1.9,0,3.3,1.5,3.3,3.4c0,1.9-1.5,3.4-3.3,3.4h-10.1l0.2,59.9l53.6,92.2C197.1,229.9,192.9,237.3,185.7,239.2L185.7,239.2z M131.2,47.1c0,3.7,3,6.7,6.7,6.7s6.7-3,6.7-6.7c0-3.7-3-6.7-6.7-6.7S131.2,43.4,131.2,47.1z M138,30.2c5.6,0,10.1-4.5,10.1-10.1c0-5.6-4.5-10.1-10.1-10.1c-5.6,0-10.1,4.5-10.1,10.1C127.9,25.7,132.4,30.2,138,30.2z M111,47.1c3.7,0,6.7-3,6.7-6.7c0-3.7-3-6.7-6.7-6.7c-3.7,0-6.7,3-6.7,6.7C104.3,44.1,107.3,47.1,111,47.1z"/></g></g></g>
</svg>